<?xml version="1.0" encoding="iso-8859-1"?>
<!-- Generator: Adobe Illustrator 16.0.0, SVG Export Plug-In . SVG Version: 6.00 Build 0)  -->
<!DOCTYPE svg PUBLIC "-//W3C//DTD SVG 1.1//EN" "http://www.w3.org/Graphics/SVG/1.1/DTD/svg11.dtd">
<svg version="1.1" id="Capa_1" xmlns="http://www.w3.org/2000/svg" xmlns:xlink="http://www.w3.org/1999/xlink" x="0px" y="0px"
	 width="206.47px" height="206.47px" viewBox="0 0 206.47 206.47" style="enable-background:new 0 0 206.47 206.47;"
	 xml:space="preserve">
<g>
	<path d="M184.201,88.466H57.538v-3.915c0-9.522-7.747-17.269-17.269-17.269h-23c-0.932,0-1.839,0.095-2.731,0.237V55.735
		c0-4.014-3.254-7.269-7.269-7.269C3.254,48.466,0,51.72,0,55.735v28.816v11.184v19.816v10.185c0,4.014,3.254,7.269,7.269,7.269
		H13.5v17.731c0,4.014,3.254,7.269,7.269,7.269c4.015,0,7.269-3.254,7.269-7.269v-17.731h22.231H170.5v17.731
		c0,4.014,3.254,7.269,7.27,7.269c4.014,0,7.269-3.254,7.269-7.269v-17.752c11.892-0.442,21.432-10.25,21.432-22.248
		C206.469,98.456,196.48,88.466,184.201,88.466z M43.001,115.551c0,1.507-1.225,2.731-2.731,2.731h-23
		c-1.506,0-2.731-1.225-2.731-2.731v-12.548h28.463L43.001,115.551L43.001,115.551z M43.001,88.466H14.538v-3.915
		c0-1.506,1.225-2.731,2.731-2.731h23c1.506,0,2.731,1.225,2.731,2.731L43.001,88.466L43.001,88.466z M184.201,118.466H57.538
		v-15.463h126.663c4.263,0,7.73,3.468,7.73,7.73C191.932,114.997,188.464,118.466,184.201,118.466z"/>
</g>
<g>
</g>
<g>
</g>
<g>
</g>
<g>
</g>
<g>
</g>
<g>
</g>
<g>
</g>
<g>
</g>
<g>
</g>
<g>
</g>
<g>
</g>
<g>
</g>
<g>
</g>
<g>
</g>
<g>
</g>
</svg>
